<?xml version="1.0" encoding="UTF-8"?>
<svg version="1.1" viewBox="0 0 900 900" width="1280" height="1280" xmlns="http://www.w3.org/2000/svg">
<path transform="translate(325,223)" d="m0 0h251l19 9 10 6 13 13 12 23 2 4 2 13 2 2 1 11 3 5 2 14 2 3v9h15v-17l2-6 3-11 17-17 9-2 2-2 6-1h98l16 8 6 4 6 7 4 8 3 10 1 1 1 17 10 2 3 2 8 2 16 8 8 7 9 9 5 9 4 5 3 9 1 1v460l-2 1-2 9-5 9-9 10-12 12-7 4-10 4-4 1-1 2h-801l-3-3-13-7-7-7-8-5-3-6-5-6-6-12v-2h-2v-464l2-2 4-12 3-6 19-19 17-9 9-2 2-2 8-1h191l1-9 2-4 2-12 2-4 2-12 2-4 2-12 8-17 5-9 12-12 5-4 17-9zm-3 33-22 22v9l-2 5-2 6-1 9-2 2-2 14-2 2-1 11-3 5-1 3v8l-3 5-10 10-91 1 15 30v49l-3 4-2 5-4 8-6 10-19 19-12 6-9 3-10 2-3 3-98 1-1 92v215h87l1-3 15-1 8-7 4-2 5-8 3-3 1-256 6-11 12-12 5 1 17 17-1 5-6 5-1 51v108l-1 88-3 5-1 7-3 5-6 11-9 10-6 6-7 3-6 5-9 2-2 2-99 1 6 12 7 7 11 5 7 1 2 2h769l2-1v-2l10-1 11-6 6-6 4-8 2-10 2-3v-433l-2-3-3-10-15-15-11-5-212-1-7-8-4-4-2-14-3-7-2-10-2-6-1-9-2-2-2-14-3-7-4-10-4-6-14-14zm375 56-2 4h-2l-1 6v12l1 1h106v-18l-3-4-4-1zm-638 56-18 9-2 6-7 7-1 9-2 1-1 13v59l1 3h101l11-6 4-4 8-4 6-10 4-4 2-9 2-4v-25l-3-7-2-6-5-6-3-6-5-4-6-3-6-5-5-2-4-2z"/>
<path transform="translate(426,363)" d="m0 0h48l3 3 17 1 6 2 1 1 14 2 3 2 9 2 3 2 10 3 32 16 9 5 5 4 8 5 10 10 9 5 14 14 5 9 10 10 6 10 6 9 6 8 12 24 2 9 2 2 3 7 1 2 2 13 2 2 1 13 3 2 1 12v22l3 2v19l-2 2-1 12-1 18-3 3v9l-1 8-2 2-2 10-2 2-2 10-3 5-12 24-4 7-2 5-5 5-3 7-9 9-3 7-32 32-7 3-7 7-20 12-16 8-13 6-15 5-16 5-5 2-15 2-3 2h-73l-3-2-16-2-8-3-18-6-16-6-28-14-6-5-9-6-6-6-7-3-29-29v-2h-2l-3-6v-2h-2l-8-10-10-16-15-30-4-10-4-11-2-7-2-5-1-13-3-7-1-26-3-5v-13l3-4 1-31 4-8 1-15 2-2 3-11 4-12 16-32 6-8 3-5 5-7 3-5 9-9 4-6 3-5 15-15 6-3 13-12 10-6 8-5 21-11 17-8 7-2 4-2 7-1 2-2 14-2 2-2 6-1h17l1-3zm9 33-22 1-4 2-12 2-3 2-9 2-9 3-33 16-11 6-5 4v2l-4 2-8 5-30 30-3 7-6 7-1 4-5 5-4 8-9 17-3 7-6 18-1 9-2 2-2 18-2 2-1 10v40l2 5 1 1 2 18 2 2 2 14 2 2 2 10 3 5 4 10 2 6 5 6 7 14 5 6 3 6h2l2 4 36 36 11 7 5 4 15 8 11 5 6 3 10 3 12 4 1 1 14 2 2 2 24 1 4 3h26l1-3 26-1 2-1v-2l14-1 7-3 18-6 17-8 15-8 11-9 6-4 10-9 26-26 4-6 3-5 5-7 19-38 3-10 4-16 2-9 1-10 2-2v-54l-2-2-1-8-1-9-2-3-2-13-2-3-3-11-16-32h-2l-2-5-4-7h-2l-6-12h-2l-2-4-26-26-10-6-8-7-40-20-10-3-12-4-9-2-11-2-1-1-18-1z"/>
<path transform="translate(434,419)" d="m0 0h33l5 2 1 1 17 1 30 10 16 8 9 5 5 4 8 5 6 5v2l6 2 8 7 13 13 3 6v2h2l8 10 20 40 2 9 2 2 1 13 3 2v35l4 2-1 3-2 1-1 34-3 4-1 8-2 2-2 10-2 2-2 10-3 5-4 8-3 5-4 4-3 7-5 5-2 6-30 30-7 4-9 7-14 7-6 5-9 2-12 6-9 3-10 2-9 1-3 2-36 1-22-1-2-2-15-1-8-4-6-2-10-4-9-3-11-6-3-2v-2l-7-2-6-5v-2l-6-1-32-32-3-6v-2h-2l-5-7-1-5h-2l-6-10-6-12-3-10-5-9-2-13-2-3-1-5-1-29-2-4 1-2h2v-32l3-4 2-13 3-9 6-13 3-11 6-10 5-7 3-5 8-9 3-6 19-19 8-5 10-8 9-6 12-7 17-8 7-2 6-2 9-1 2-2 6-1h13l1-3zm-2 33-11 1-3 2-13 2-3 2-9 2-16 8-9 5-6 5-6 3-31 31-2 6-5 5-8 16-4 12-2 4-1 7-3 3-1 17-3 4v37l3 5 1 11 3 5 1 11 9 19 6 10 4 5 3 6 8 8 4 8 3 3 7 3 13 13 8 4 4 4 11 5 8 4 7 1 5 3 7 1 2 2 31 1 1 3h10l1-3 30-1 2-1v-2l10-1 2-1v-2l10-1 17-9 9-6 10-8 26-26 4-6 3-5 5-7 7-14 3-10 4-12 2-10 2-6 1-2v-41l-3-5-1-15-2-2-3-11-2-6-4-10-8-12-6-12-30-30-10-6-8-5-16-8-7-3-9-3-16-4-16-1z"/>
<path transform="translate(116)" d="m0 0h20l6 10 3 8 2 6 8 16 5 6 3 6 8 8 4 8 9 9 9 5 7 7 9 5 5 4 26 13 7 1 5 6 2 5 2 1-1 4-4 8-5 4-19 9-6 1-8 6-13 7-38 38-3 7-4 8-6 7-1 8-3 5-6 12-6 5h-3l-2 3h-4l-1-2-8-4-3-3-5-13-4-10-7-13-4-5-4-7-7-7-4-8-10-10-8-4-8-8-8-4-5-4-10-5-5-3-9-2-11-6-3-2v-20l12-5 16-8 15-8 7-4 8-7 9-6 13-13 5-9 7-7 6-10 10-22 2-3 3-10zm9 52-2 7-7 8-4 7-11 11-3 7-3 3-6 2-18 18-7 3-6 5-6 2 5 5 9 6 11 7 33 33 6 10 5 8 3 5 4-1 4-6 3-5 8-9 3-6 27-27 6-3 12-10 9-5-3-3-7-4-8-7-7-4-33-33-5-9-4-5-5-8z"/>
<path transform="translate(411,531)" d="m0 0 8 1 2 2 10 2 10 6 4 4 6 1 5-1v-2l7-5 8-4 9-1v-2l12-1 5 3 10 2 5 3 6 4 13 13 2 5v6l3 1v27l-3 5-4 8-3 5-67 67-10 1-5-2-8-4-59-59-4-8-5-6-3-10-2-5v-13l5-13 5-9 4-5 10-8 9-4 7-2 1-1zm-4 33-8 6-3 5v14l7 8 46 46 4-2 49-49 1-2 1-19-3-3-5-2-4-2h-9l-11 6-6 5-14 7v2l-16-8-5-3-4-4-11-5z"/>
<path transform="translate(732,731)" d="m0 0h86l7 7 7 3 4 5 8 15v54l-6 10-15 15-7 3-2 1h-82l-8-5-9-5-7-8-5-10v-56l6-12 4-5 10-8 5-3zm10 29-6 5-3 3-1 6v28l2 6 7 7h62l5-3 4-4 3-5v-29l-6-12-2-2z"/>
<path transform="translate(728,547)" d="m0 0h15l10 4 12 7 14 14 9 18v29l-3 5-1 7-6 6-3 7-4 4-7 3-6 5-8 4-12 1-3 3h-6l-4-3-5-2-2-6-2-1-1-5v-87l2-5 8-7zm21 37-1 3v36l4-1 1-3h2l2-12h2v-6l-2-2-3-11h-2l-2-4z"/>
<path transform="translate(745,435)" d="m0 0h98l2 3v24l-1 2h-100l-1-1v-26z"/>
<path transform="translate(96,391)" d="m0 0h7l10 4 8 7 5 8 2 4 1 9-1 8-5 9-8 8-9 1-3 3h-10l-2-2-7-3-6-3-3-4-6-12-2-5 1-6 9-17z"/>
<path transform="translate(437,279)" d="m0 0h26l2 3v28l-1 2h-28l-1-1v-30z"/>
<path transform="translate(380,279)" d="m0 0h27l2 3v28l-1 2h-28l-1-1v-30z"/>
<path transform="translate(493,279)" d="m0 0h26l2 3v28l-1 2h-28l-1-1v-30z"/>
<path transform="translate(854,899)" d="m0 0 2 1z"/>
<path transform="translate(899,849)" d="m0 0"/>
<path transform="translate(749,585)" d="m0 0"/>
</svg>