<?xml version="1.0" encoding="UTF-8"?>
<svg version="1.1" viewBox="0 0 900 900" width="1280" height="1280" xmlns="http://www.w3.org/2000/svg">
<path transform="translate(225,75)" d="m0 0h74l2 3-1 69h299v-70l2-2h74l2 3-1 69h46l13 4 12 5 10 6 17 17 10 19 3 10 1 2 1 98v83l-1 376-2 2-2 9-9 17-9 10-8 7-6 3-6 5-8 1-4 3h-570l-1-3-10-1-6-6-8-4-14-14-8-16-4-12-2-8v-123l2-2h74l2 2v35l-1 75h523v-407l-3 1h-508l-11-1v146l-1 2h-76l-1-1v-280l14-27 19-19 17-9 9-2 2-2 7-1h44v-70z"/>
<path transform="translate(299,451)" d="m0 0 4 1 110 110-1 5-110 110h-2l-1-2v-75h-227l-1-1v-67l2-5 3-3 17-1h206z"/>
</svg>
