<?xml version="1.0" encoding="UTF-8"?>
<svg version="1.1" viewBox="0 0 800 800" width="1280" height="1280" xmlns="http://www.w3.org/2000/svg">
<path transform="translate(386,64)" d="m0 0h26l24 2 24 4 24 6 21 7 25 11 21 11 21 14 16 12 12 11 8 7 12 12 7 8 12 15 16 24 9 16 8 16 10 25 7 23 5 22v2h29l11 2 13 5 9 6 10 9 7 10 5 11 2 9v123l-3 11-7 14-9 10-7 6-14 7-11 3-10 1h-39v29l-2 19-4 18-6 16-6 12-7 11-9 12-7 8-8 7-11 9-17 10-16 7-16 5-17 3-10 1h-59l-2 6-5 8-8 8-10 5-12 2h-101l-9-2-11-6-7-7-6-11-2-7v-38l4-13 7-9 7-6 11-5 14-1h92l12 2 10 5 9 9 6 12h62l16-3 13-5 13-7 12-9 8-8 9-13 7-14 4-14 2-12v-223l-2-21-4-21-8-26-9-21-10-19-10-15-11-14-11-12-12-12-14-11-14-10-19-11-19-9-30-10-25-5-8-1-15-1h-24l-21 2-25 5-27 9-24 11-21 13-13 10-11 9-18 18-1 2h-2l-2 4-14 18-14 24-7 15-8 21-6 23-3 17-2 29-1 155-4 10-7 8-8 4-4 1-17 1h-41l-14-1-13-4-10-5-11-9-8-10-6-12-3-11-1-15v-79l1-30 4-13 6-12 11-12 11-8 12-5 10-2 30-1 3-9 6-24 8-23 10-23 12-22 12-18 12-16 12-14 14-15h2v-2l8-7 13-11 18-13 20-12 23-12 22-9 23-7 27-6 22-3z"/>
<path transform="translate(492,300)" d="m0 0h16l10 4 10 9 6 9 3 10v11l-3 10-7 11-10 10-7 8-8 8-7 8-14 15-12 13-14 15-15 16-2 3h-2l-2 4-8 8-7 8-16 17-9 8-8 4-7 2h-12l-12-4-10-8-14-15-9-10-42-45-11-13-5-11-1-9 2-12 5-10 6-7 11-7 7-2h14l9 3 8 5 8 7 7 8 16 17 14 15 3 3h2l7-9h2l2-4 10-10 1-2h2l2-4 7-8h2l2-4 7-7 7-8 7-7 1-2h2l2-4 9-9 7-8 12-13 5-6 10-7 6-3z"/>
</svg>
