<?xml version="1.0" encoding="UTF-8"?>
<svg version="1.1" viewBox="0 0 888 872" width="1280" height="1280" xmlns="http://www.w3.org/2000/svg">
<path transform="translate(349,44)" d="m0 0 3 1 1 2 9 1 2 1v2l4 2 6 10 2 4v11l-3 4-2 5-26 26v17l5 9 8 4h11l11-6 5-5 7-6 2-3h2l2-4h2l2-4h2l2-4h2l2-4h2l2-4 18-18 2-1h24l8 7 6 12v7l-3 4-2 5-4 8-6 6v17l5 9 6 2v2h13l11-6 14-14h2l2-4h2l2-4 4-4h2l2-4h2l2-4h2l2-4 6-5 6-7 6-5 6-7 6-5 6-7 4-4h2l2-4h2l2-4 20-20h2v-2l2-1h24l6 5 6 10 2 5v10l-3 4-2 5-45 45-1 2v12l4 8 7 3 5 5 2 1h7l9-7 5-3 5-4 5-6 6-5 6-7h2l2-4h2l2-4 19-19 5-4 8-4h7l10 5 5 4 6 10 2 4v11l-3 4-2 5-29 29-5 10v8l5 9 7 3 8 4h3l1-2 9-1 6-5 2-3h2l2-4 20-20 7-4 6-3h10l10 5 5 10 3 1 1 3v14l-6 11-48 48-1 2-1 12-3 3v2l3 3 3 7 11 6h7l10-5 6-5 5-6 6-5 7-8 13-13 2-1h19l10 5 5 11v18l-11 11-2 6-125 125-5 10v12l9 10 2 1v2h14l4-3 5-2 5-4 7-8 15-15 7-4 5-3h20l5 4 5 7 1 8 3 3v5l-3 2-1 9-58 58-1 2v12l4 8 8 4 7 3 2 2 4-3 7-3 8-5 23-23 2-1h15l10 5 5 4v2h2l2 4v23l-83 83-5 6-7 6-5 6-7 6-5 6-8 7-166 166h-20l-4-3-7-3-3-4-3-7-1-1v-11l5-10 23-23 4-7 3-5v-16l-7-8-5-5-8-1h-6l-1 3-8 7-106 106h-24l-14-14v-15l5-10 5-6 8-7 4-5 6-5 6-7 6-5 5-6 8-7 4-5 8-7 6-7 4-8v-12l-5-9-6-3-1-1h-18l-123 123h-24l-14-14v-15l5-10 5-6 6-5 6-7 6-5 6-7 6-5 6-7 6-5 6-7 7-6 5-6 6-5 6-7 6-5 5-5 6-7 4-8v-8l-6-11-11-6-11-1-8 7-57 57h-8l-3 4h-5l-3-3-6-2-2-2-6-2-5-9v-20l6-7 6-5 2-3h2l2-4 6-4 8 7h4l6-7 7-6 5-6 6-5 6-7h2l2-4 19-19h142l15 16 28 28 8 7h7l5-3h2l-5-6v-2l-4-2v-2h-2l-5-6-2-5-9-9-7-8-6-5v-3l41-1 3-1 7-8 3-3h2l2-4 4-4h2l2-4h2l2-4h2l2-4 84-84h2l2-4 6-5 6-7h2l5-10 4-5 2-1-6-12-2-2h-18l-71 71-5 1-2 6-7 3-12 12-1 2h-2l-2 7-25 25h-138v-230l5-6 121-1 4-4 1-2v-28l-5-4-21-10-7-6-7-3-17-9-4-4-7-3-9-5-4-4-7-3-17-9-8-4-2-4-8-2-5-3-7-5-1-2h-13l-7 6-16 8-4 4-21 10-13 8-4 3-7 4-3 3-21 10-12 7-3 3-16 8-5 4-5 2-1 35h131l1 1v234l-3 1h-29l-1 4h-91v6l-3 3v13l3 5 1 4 59 1 1 3-4 6-31 31h-2l2-4 1-5-6-12-6-6-4-1-18 1-70 70-11 5h-10l-4-3-7-3-1-3h-2l-4-5-4-8 1-6 2-3 1-7 5-6 8-7 4-5 7-6 6-7 6-5 6-7 6-5 6-7 6-5 6-7 6-5 6-7 6-5 3-4v-20l-7-8-1-1h-22l-19 19-6 2-4 2h-14l-3-2v-2h-5l-2-2-1-6-3-1-4-5v-11l3-5 3-7 3-6 6-3 9-8 6-7 4-4h2l2-4 5-8 4-5v-16l-5-5-8-4h-17l-47 47h-6v6l-6 6-6 2-4 2h-18l-14-14v-15l5-10 5-6 7-6 16-16 5-6 6-5 6-7 6-5 6-7 6-5 6-7 6-5 6-7 6-5 6-7 6-5 2-3h2l2-4 5-9v-8l-6-11-11-6h-13l-23 23-6 2-4 2h-18l-4-3-7-3-3-3v-25l6-7 8-7 4-5 6-5 6-7 4-4h2l2-4h2l2-4h2l2-4h2l2-4h2l2-4h2l2-4h2l2-4h2l2-4h2l2-4h2l2-4h2l2-4h2l2-4h2l2-4h2l2-4h2l2-4h2l2-4h2l2-4h2l2-4h2l2-4h2l2-4h2l2-4h2l2-4h2l2-4h2l2-4h2l2-4h2l2-4h2l2-4h2l2-4h2l2-4 60-60h2l2-4h2l2-4 4-4h2l2-4 4-4h2l2-4h2l2-4h2l2-4h2l2-4h2l2-4h2l2-4h2l2-4h2l2-4h2l2-4h2l2-4 20-20 4-3 10-1z" fill="#000"/>
<path transform="translate(686,724)" d="m0 0h19l10 5 5 4 4 6 1 8 3 3v9l-3 2-1 9-38 38-10 4h-11l-2-3-9-1-7-6-3-4-3-7-1-1v-20l2-3h2l2-4 17-17 2-6 4-4 6-2 9-9z" fill="#000"/>
<path transform="translate(206,80)" d="m0 0h24l6 5v2l4 2v2l3 1 1 3v27l-4 5-8 7-21 21-10 5h-8l-4-4h-7l-7-6-7-8v-23l5-10 11-12 10-10 7-4z" fill="#000"/>
<path transform="translate(829,356)" d="m0 0h8l11 5 4 6 4 9v14l-3 4-2 5-21 21-13 1-2 3h-2l-2-3-6-2-8-4-5-9v-15l5-10 9-10 6-5 4-5 10-2z" fill="#000"/>
<path transform="translate(202,716)" d="m0 0 6 1 1 2 9 1 9 9 2 10 3 2v6l-3 1-2 7-6 6-2 6-6 2-1 6-8 3-9 5-4 1h-9l-14-14-3-7-1-1v-8l5-9 5-6h2l2-4h2l2-4 8-8 7-4z" fill="#000"/>
<path transform="translate(505,21)" d="m0 0h3l1 2 9 1 6 5 6 10 2 4v11l-15 15-2 6-7 3-4 2-7 1-1 2-4-1-9-4-6-3-4-8-1-1v-15l5-10 11-12 6-5 10-2z" fill="#000"/>
<path transform="translate(82,572)" d="m0 0h11l11 5 4 6 4 9v14l-7 7-2 6-5 5-6 2-3 2h-6l-4 4-3-1-1-2-9-1-6-5-4-5v-24l7-8 7-7 7-4z" fill="#000"/>
</svg>