<?xml version="1.0" standalone="no"?>
<!DOCTYPE svg PUBLIC "-//W3C//DTD SVG 20010904//EN"
 "http://www.w3.org/TR/2001/REC-SVG-20010904/DTD/svg10.dtd">
<svg version="1.0" xmlns="http://www.w3.org/2000/svg"
 width="381.000000pt" height="254.000000pt" viewBox="0 0 381.000000 254.000000"
 preserveAspectRatio="xMidYMid meet">

<g transform="translate(0.000000,254.000000) scale(0.100000,-0.100000)"
fill="#000000" stroke="none">
<path d="M1397 2166 c-58 -16 -109 -63 -127 -116 -32 -97 18 -240 116 -329
l56 -51 27 20 c86 61 150 172 158 274 8 99 -41 175 -131 201 -27 8 -50 15 -50
14 -1 0 -23 -6 -49 -13z m113 -41 c16 -8 42 -32 57 -52 58 -75 27 -211 -70
-310 -23 -24 -46 -43 -53 -43 -21 0 -95 90 -121 146 -33 72 -34 161 -2 205 45
64 125 87 189 54z"/>
<path d="M1396 2069 c-56 -44 -20 -139 54 -139 31 0 66 33 75 72 6 22 1 33
-23 58 -36 35 -69 38 -106 9z m78 -25 c9 -8 16 -24 16 -34 0 -20 -25 -50 -42
-50 -17 0 -48 31 -48 48 0 19 29 52 46 52 7 0 20 -7 28 -16z"/>
<path d="M1776 2173 c-13 -13 -5 -33 12 -33 10 0 23 -5 30 -12 14 -14 38 4 28
20 -8 13 -63 32 -70 25z"/>
<path d="M2057 2150 c-29 -23 -36 -50 -14 -50 21 0 57 44 48 58 -6 10 -14 8
-34 -8z"/>
<path d="M2140 2157 c0 -8 11 -24 25 -37 20 -19 28 -21 38 -11 9 10 6 17 -16
37 -31 27 -47 31 -47 11z"/>
<path d="M1702 2138 c-6 -7 -13 -25 -17 -41 -6 -23 -4 -27 14 -27 14 0 21 6
21 18 0 10 5 23 10 28 8 8 7 14 -3 23 -11 9 -17 8 -25 -1z"/>
<path d="M1857 2083 c-14 -13 -7 -73 7 -73 18 0 23 15 18 52 -4 28 -12 34 -25
21z"/>
<path d="M2022 2013 c4 -52 28 -56 28 -4 0 30 -4 41 -16 41 -11 0 -14 -9 -12
-37z"/>
<path d="M2190 2015 c0 -24 5 -35 15 -35 10 0 15 11 15 35 0 24 -5 35 -15 35
-10 0 -15 -11 -15 -35z"/>
<path d="M1680 1979 c0 -33 3 -40 18 -37 12 2 18 14 20 41 3 32 0 37 -17 37
-18 0 -21 -6 -21 -41z"/>
<path d="M1850 1919 c0 -33 3 -40 18 -37 12 2 18 14 19 41 2 31 -1 37 -17 37
-17 0 -20 -7 -20 -41z"/>
<path d="M2190 1890 c0 -29 4 -40 15 -40 11 0 15 11 15 40 0 29 -4 40 -15 40
-11 0 -15 -11 -15 -40z"/>
<path d="M2022 1883 c4 -52 28 -56 28 -4 0 30 -4 41 -16 41 -11 0 -14 -9 -12
-37z"/>
<path d="M1680 1850 c0 -33 3 -40 20 -40 17 0 20 7 20 40 0 33 -3 40 -20 40
-17 0 -20 -7 -20 -40z"/>
<path d="M1850 1790 c0 -28 4 -40 14 -40 21 0 27 14 20 49 -10 46 -34 40 -34
-9z"/>
<path d="M2190 1760 c0 -29 4 -40 15 -40 11 0 15 11 15 40 0 29 -4 40 -15 40
-11 0 -15 -11 -15 -40z"/>
<path d="M2020 1771 c0 -11 -5 -23 -10 -26 -8 -5 -7 -12 1 -22 11 -13 14 -13
26 3 18 25 17 64 -2 64 -8 0 -15 -9 -15 -19z"/>
<path d="M1680 1725 c0 -28 4 -35 20 -35 16 0 20 7 20 35 0 28 -4 35 -20 35
-16 0 -20 -7 -20 -35z"/>
<path d="M1895 1710 c-10 -17 13 -30 52 -30 25 0 31 4 27 15 -4 8 -14 15 -24
15 -10 0 -25 3 -33 6 -8 3 -18 0 -22 -6z"/>
<path d="M2192 1654 c4 -21 22 -23 26 -1 2 10 -3 17 -13 17 -10 0 -15 -6 -13
-16z"/>
<path d="M1430 1610 c0 -11 7 -20 15 -20 8 0 15 9 15 20 0 11 -7 20 -15 20 -8
0 -15 -9 -15 -20z"/>
<path d="M1680 1589 c0 -33 3 -40 18 -37 12 2 18 14 20 41 3 32 0 37 -17 37
-18 0 -21 -6 -21 -41z"/>
<path d="M2090 1571 c-90 -29 -174 -104 -213 -189 -33 -72 -30 -198 6 -273 32
-66 99 -132 165 -162 37 -17 66 -22 137 -22 78 0 97 4 147 28 130 64 209 218
180 353 -16 77 -49 138 -98 184 -70 64 -117 83 -214 87 -47 1 -96 -1 -110 -6z
m191 -38 c74 -24 159 -107 183 -181 22 -65 18 -170 -8 -223 -90 -187 -321
-233 -474 -94 -64 57 -92 123 -92 214 0 98 27 159 100 224 82 74 182 95 291
60z"/>
<path d="M2102 1487 c-50 -16 -128 -91 -147 -142 -27 -70 -18 -172 21 -227 65
-93 173 -134 274 -105 110 32 180 124 180 236 0 69 -18 116 -62 167 -63 72
-173 101 -266 71z m68 -47 c0 -11 7 -20 15 -20 8 0 15 9 15 20 0 26 29 26 78
1 56 -29 103 -87 116 -143 5 -24 3 -28 -14 -28 -26 0 -26 -26 -1 -33 17 -4 18
-10 11 -42 -11 -51 -57 -105 -110 -132 -55 -29 -80 -29 -80 -3 0 11 -7 20 -15
20 -9 0 -15 -9 -15 -21 0 -19 -4 -21 -32 -15 -70 14 -146 88 -162 159 -6 23
-3 30 14 34 26 7 26 33 0 33 -17 0 -19 4 -14 28 10 42 29 74 63 107 56 53 131
73 131 35z"/>
<path d="M2210 1322 c-73 -37 -74 -38 -106 -109 l-33 -73 37 16 c20 9 55 23
76 31 34 14 43 26 73 91 19 40 33 75 31 77 -2 2 -37 -13 -78 -33z m-2 -67 c-6
-14 -15 -25 -19 -25 -4 0 -14 -3 -23 -6 -9 -3 -16 -1 -16 5 0 16 38 51 55 51
12 0 13 -4 3 -25z"/>
<path d="M1430 1505 c0 -24 5 -35 15 -35 10 0 15 11 15 35 0 24 -5 35 -15 35
-10 0 -15 -11 -15 -35z"/>
<path d="M1680 1470 c0 -33 3 -40 20 -40 17 0 20 7 20 40 0 33 -3 40 -20 40
-17 0 -20 -7 -20 -40z"/>
<path d="M1430 1375 c0 -24 5 -35 15 -35 10 0 15 11 15 35 0 24 -5 35 -15 35
-10 0 -15 -11 -15 -35z"/>
<path d="M1680 1341 c0 -35 3 -41 21 -41 17 0 20 5 17 37 -2 27 -8 39 -20 41
-15 3 -18 -4 -18 -37z"/>
<path d="M1430 1245 c0 -24 5 -35 15 -35 10 0 15 11 15 35 0 24 -5 35 -15 35
-10 0 -15 -11 -15 -35z"/>
<path d="M1680 1210 c0 -33 3 -40 20 -40 17 0 20 7 20 40 0 33 -3 40 -20 40
-17 0 -20 -7 -20 -40z"/>
<path d="M1430 1120 c0 -29 4 -40 15 -40 11 0 15 11 15 40 0 29 -4 40 -15 40
-11 0 -15 -11 -15 -40z"/>
<path d="M1680 1079 c0 -33 3 -40 18 -37 12 2 18 14 20 41 3 32 0 37 -17 37
-18 0 -21 -6 -21 -41z"/>
<path d="M1430 1007 c0 -13 7 -32 15 -43 21 -27 37 -2 23 37 -12 35 -38 39
-38 6z"/>
<path d="M1660 975 c-18 -20 -21 -28 -12 -37 10 -10 18 -6 38 14 15 14 23 31
20 37 -11 17 -20 14 -46 -14z"/>
<path d="M1517 943 c-16 -15 -5 -23 33 -23 29 0 40 4 40 15 0 10 -10 15 -33
15 -19 0 -37 -3 -40 -7z"/>
<path d="M2677 792 c-22 -24 -21 -35 3 -57 17 -15 24 -16 45 -7 31 14 34 56 6
72 -27 14 -35 13 -54 -8z"/>
<path d="M1940 605 l0 -195 30 0 30 0 0 195 0 195 -30 0 -30 0 0 -195z"/>
<path d="M2818 743 c-2 -44 -7 -58 -18 -58 -9 0 -16 -11 -18 -31 -2 -25 1 -33
17 -37 18 -4 21 -13 21 -66 0 -95 43 -141 130 -141 38 0 40 2 40 30 0 27 -3
30 -33 30 -53 0 -77 30 -77 95 l0 55 55 0 c54 0 55 0 55 30 0 28 -3 30 -37 31
-71 2 -68 0 -71 62 -3 56 -4 57 -32 57 -28 0 -29 -1 -32 -57z"/>
<path d="M480 745 l0 -35 55 0 55 0 0 -150 0 -150 35 0 35 0 0 150 0 150 55 0
55 0 0 35 0 35 -145 0 -145 0 0 -35z"/>
<path d="M2330 774 c0 -4 26 -87 57 -186 l57 -178 36 0 36 0 61 185 61 185
-38 0 c-43 0 -44 -1 -85 -142 -16 -54 -31 -98 -35 -98 -4 0 -23 53 -42 118
l-34 117 -37 3 c-20 2 -37 0 -37 -4z"/>
<path d="M810 552 l0 -142 35 0 35 0 0 88 c0 102 12 122 73 122 36 0 37 1 37
35 0 32 -2 35 -30 35 -16 0 -48 -7 -70 -16 -38 -15 -42 -15 -60 1 -20 18 -20
17 -20 -123z"/>
<path d="M1089 675 c-75 -41 -90 -173 -26 -233 12 -11 41 -26 64 -32 37 -11
46 -10 88 10 44 21 47 22 65 5 20 -18 20 -16 20 118 0 76 -2 137 -5 137 -3 0
-14 -5 -24 -12 -14 -9 -23 -8 -42 5 -29 21 -104 22 -140 2z m111 -55 c26 -14
42 -65 29 -97 -32 -84 -139 -64 -139 25 0 21 6 45 13 54 21 27 65 35 97 18z"/>
<path d="M1342 678 c3 -7 27 -71 54 -141 l48 -128 35 3 35 3 48 125 c26 68 48
130 48 137 0 8 -13 13 -33 13 -33 0 -34 -1 -62 -85 -16 -47 -32 -85 -36 -85
-3 0 -20 37 -36 83 -29 82 -29 82 -67 85 -29 3 -37 0 -34 -10z"/>
<path d="M1697 669 c-37 -28 -57 -69 -57 -119 0 -70 34 -117 102 -140 31 -12
43 -11 81 4 62 23 75 40 52 66 -22 24 -33 25 -56 4 -9 -8 -27 -14 -40 -12 -20
3 -16 10 45 84 36 45 66 84 66 87 0 3 -15 15 -34 26 -45 28 -121 28 -159 0z
m103 -44 c0 -15 -83 -114 -91 -109 -21 13 4 96 33 107 18 7 58 8 58 2z"/>
<path d="M2676 663 c-6 -33 -5 -222 2 -240 2 -7 17 -13 33 -13 l29 0 0 140 0
140 -29 0 c-24 0 -30 -5 -35 -27z"/>
<path d="M3075 659 c-88 -78 -60 -218 50 -249 42 -12 49 -11 95 12 49 24 51
25 61 6 5 -10 14 -16 19 -13 10 6 10 265 0 265 -4 0 -13 -6 -20 -14 -10 -13
-16 -12 -43 5 -20 11 -50 19 -79 19 -39 0 -54 -6 -83 -31z m140 -55 c32 -35
32 -78 0 -109 -50 -51 -125 -18 -125 55 0 72 78 105 125 54z"/>
<path d="M2072 598 l3 -33 80 -3 c109 -4 125 1 125 38 l0 30 -106 0 -105 0 3
-32z"/>
</g>
</svg>
